<mxfile host="app.diagrams.net" modified="2023-06-28T00:21:31.535Z" agent="Mozilla/5.0 (Macintosh; Intel Mac OS X 10_15_7) AppleWebKit/537.36 (KHTML, like Gecko) Chrome/114.0.0.0 Safari/537.36" etag="XAbhukDDChw2fdD6M3Xp" version="21.5.1" type="device" pages="2">
  <diagram name="Page-1" id="enzCbStMEwXn0YLjpf-Z">
    <mxGraphModel dx="1194" dy="671" grid="1" gridSize="10" guides="1" tooltips="1" connect="0" arrows="1" fold="1" page="1" pageScale="1" pageWidth="850" pageHeight="1100" math="0" shadow="0">
      <root>
        <mxCell id="0" />
        <mxCell id="1" parent="0" />
        <mxCell id="oLHMKdf_c8ozPo9maUvz-1" value="" style="rounded=0;whiteSpace=wrap;html=1;fillColor=#f5f5f5;fontColor=#333333;strokeColor=#666666;" vertex="1" parent="1">
          <mxGeometry x="40" y="160" width="770" height="570" as="geometry" />
        </mxCell>
        <mxCell id="lJU4MYkeWqJsF0_TRZ6k-1" value="&lt;b&gt;&lt;font style=&quot;font-size: 15px;&quot;&gt;&lt;i&gt;Database&lt;/i&gt;&lt;/font&gt;&lt;/b&gt;" style="shape=cylinder3;whiteSpace=wrap;html=1;boundedLbl=1;backgroundOutline=1;size=15;fillColor=#fad7ac;strokeColor=#b46504;" vertex="1" parent="1">
          <mxGeometry x="460" y="200" width="120" height="140" as="geometry" />
        </mxCell>
        <mxCell id="lJU4MYkeWqJsF0_TRZ6k-2" value="" style="curved=1;endArrow=classic;html=1;rounded=0;entryX=0;entryY=0;entryDx=0;entryDy=42.5;entryPerimeter=0;exitX=0.5;exitY=0;exitDx=0;exitDy=0;" edge="1" parent="1" source="lJU4MYkeWqJsF0_TRZ6k-6" target="lJU4MYkeWqJsF0_TRZ6k-1">
          <mxGeometry width="50" height="50" relative="1" as="geometry">
            <mxPoint x="240" y="240" as="sourcePoint" />
            <mxPoint x="330" y="200" as="targetPoint" />
            <Array as="points">
              <mxPoint x="250" y="220" />
              <mxPoint x="280" y="200" />
            </Array>
          </mxGeometry>
        </mxCell>
        <mxCell id="lJU4MYkeWqJsF0_TRZ6k-6" value="&lt;b style=&quot;font-size: 15px;&quot;&gt;get(short)&lt;/b&gt;" style="text;html=1;strokeColor=none;fillColor=none;align=center;verticalAlign=middle;whiteSpace=wrap;rounded=0;fontSize=15;" vertex="1" parent="1">
          <mxGeometry x="210" y="220" width="60" height="30" as="geometry" />
        </mxCell>
        <mxCell id="lJU4MYkeWqJsF0_TRZ6k-7" value="&lt;b style=&quot;font-size: 15px;&quot;&gt;doesn&#39;t exist&lt;/b&gt;" style="text;html=1;strokeColor=none;fillColor=none;align=center;verticalAlign=middle;whiteSpace=wrap;rounded=0;fontSize=15;" vertex="1" parent="1">
          <mxGeometry x="191" y="257" width="110" height="40" as="geometry" />
        </mxCell>
        <mxCell id="lJU4MYkeWqJsF0_TRZ6k-8" value="" style="curved=1;endArrow=classic;html=1;rounded=0;entryX=0;entryY=0;entryDx=0;entryDy=97.5;entryPerimeter=0;" edge="1" parent="1" target="lJU4MYkeWqJsF0_TRZ6k-1">
          <mxGeometry width="50" height="50" relative="1" as="geometry">
            <mxPoint x="240" y="330" as="sourcePoint" />
            <mxPoint x="290" y="280" as="targetPoint" />
            <Array as="points">
              <mxPoint x="240" y="280" />
              <mxPoint x="370" y="370" />
            </Array>
          </mxGeometry>
        </mxCell>
        <mxCell id="lJU4MYkeWqJsF0_TRZ6k-9" value="&lt;b style=&quot;font-size: 15px;&quot;&gt;put(short, url)&lt;/b&gt;" style="text;html=1;strokeColor=none;fillColor=none;align=center;verticalAlign=middle;whiteSpace=wrap;rounded=0;fontSize=15;" vertex="1" parent="1">
          <mxGeometry x="195" y="330" width="120" height="30" as="geometry" />
        </mxCell>
        <mxCell id="lJU4MYkeWqJsF0_TRZ6k-10" value="&lt;b&gt;convert long url&amp;nbsp;&lt;br style=&quot;font-size: 15px;&quot;&gt;to&lt;br style=&quot;font-size: 15px;&quot;&gt;short url&lt;/b&gt;" style="rounded=1;whiteSpace=wrap;html=1;fontSize=15;fillColor=#fff2cc;strokeColor=#d6b656;" vertex="1" parent="1">
          <mxGeometry x="80" y="442" width="120" height="60" as="geometry" />
        </mxCell>
        <mxCell id="lJU4MYkeWqJsF0_TRZ6k-11" value="&lt;b&gt;get(short)&lt;/b&gt;" style="rounded=1;whiteSpace=wrap;html=1;fontSize=15;fillColor=#fff2cc;strokeColor=#d6b656;" vertex="1" parent="1">
          <mxGeometry x="272" y="442" width="120" height="60" as="geometry" />
        </mxCell>
        <mxCell id="lJU4MYkeWqJsF0_TRZ6k-12" value="&lt;b&gt;put(short, url)&lt;/b&gt;" style="rounded=1;whiteSpace=wrap;html=1;fontSize=15;fillColor=#fff2cc;strokeColor=#d6b656;" vertex="1" parent="1">
          <mxGeometry x="635" y="442" width="120" height="60" as="geometry" />
        </mxCell>
        <mxCell id="lJU4MYkeWqJsF0_TRZ6k-13" value="&lt;b&gt;exist in database&lt;/b&gt;" style="rhombus;whiteSpace=wrap;html=1;fontSize=15;fillColor=#fff2cc;strokeColor=#d6b656;" vertex="1" parent="1">
          <mxGeometry x="442" y="432" width="80" height="80" as="geometry" />
        </mxCell>
        <mxCell id="lJU4MYkeWqJsF0_TRZ6k-14" value="" style="endArrow=classic;html=1;rounded=0;exitX=1;exitY=0.5;exitDx=0;exitDy=0;entryX=0;entryY=0.5;entryDx=0;entryDy=0;" edge="1" parent="1" source="lJU4MYkeWqJsF0_TRZ6k-10" target="lJU4MYkeWqJsF0_TRZ6k-11">
          <mxGeometry width="50" height="50" relative="1" as="geometry">
            <mxPoint x="220" y="470" as="sourcePoint" />
            <mxPoint x="270" y="420" as="targetPoint" />
          </mxGeometry>
        </mxCell>
        <mxCell id="lJU4MYkeWqJsF0_TRZ6k-15" value="" style="endArrow=classic;html=1;rounded=0;exitX=1;exitY=0.5;exitDx=0;exitDy=0;entryX=0;entryY=0.5;entryDx=0;entryDy=0;" edge="1" parent="1" source="lJU4MYkeWqJsF0_TRZ6k-11" target="lJU4MYkeWqJsF0_TRZ6k-13">
          <mxGeometry width="50" height="50" relative="1" as="geometry">
            <mxPoint x="400" y="482" as="sourcePoint" />
            <mxPoint x="472" y="482" as="targetPoint" />
          </mxGeometry>
        </mxCell>
        <mxCell id="lJU4MYkeWqJsF0_TRZ6k-16" value="" style="endArrow=classic;html=1;rounded=0;exitX=1;exitY=0.5;exitDx=0;exitDy=0;entryX=0;entryY=0.5;entryDx=0;entryDy=0;" edge="1" parent="1" target="lJU4MYkeWqJsF0_TRZ6k-12">
          <mxGeometry width="50" height="50" relative="1" as="geometry">
            <mxPoint x="522" y="471.5" as="sourcePoint" />
            <mxPoint x="594" y="471.5" as="targetPoint" />
          </mxGeometry>
        </mxCell>
        <mxCell id="lJU4MYkeWqJsF0_TRZ6k-18" value="&lt;b&gt;doesn&#39;t exist&lt;/b&gt;" style="text;html=1;strokeColor=none;fillColor=none;align=center;verticalAlign=middle;whiteSpace=wrap;rounded=0;fontSize=15;" vertex="1" parent="1">
          <mxGeometry x="528" y="455" width="80" height="30" as="geometry" />
        </mxCell>
        <mxCell id="lJU4MYkeWqJsF0_TRZ6k-19" value="&lt;h1&gt;&lt;font color=&quot;#990000&quot;&gt;&lt;u&gt;Drawback:&lt;/u&gt;&lt;/font&gt;&lt;/h1&gt;&lt;p&gt;&lt;font style=&quot;font-size: 18px;&quot; color=&quot;#cc0000&quot;&gt;Consider after doing &lt;b&gt;&lt;i&gt;get(short)&lt;/i&gt;&lt;/b&gt; operation return nothing because short url &lt;b&gt;&lt;i&gt;doesn&#39;t exist&lt;/i&gt;&lt;/b&gt; but later suppose some different thread generates same short url then our previous thread will do &lt;b&gt;&lt;i&gt;put(short, url)&lt;/i&gt;&lt;/b&gt; and new thread will also be doing &lt;b&gt;&lt;i&gt;put(short, url)&lt;/i&gt;&lt;/b&gt; simulataneously then there there will be same short url in the db for different long urls.&lt;/font&gt;&lt;/p&gt;" style="text;html=1;strokeColor=none;fillColor=none;spacing=5;spacingTop=-20;whiteSpace=wrap;overflow=hidden;rounded=0;align=left;" vertex="1" parent="1">
          <mxGeometry x="57" y="560" width="753" height="160" as="geometry" />
        </mxCell>
        <mxCell id="lJU4MYkeWqJsF0_TRZ6k-21" value="&lt;h1&gt;&lt;font size=&quot;1&quot; style=&quot;&quot;&gt;&lt;i style=&quot;font-size: 30px;&quot;&gt;Initial Design&lt;/i&gt;&lt;/font&gt;&lt;/h1&gt;" style="text;html=1;strokeColor=none;fillColor=none;align=center;verticalAlign=middle;whiteSpace=wrap;rounded=0;" vertex="1" parent="1">
          <mxGeometry x="301" y="122" width="248" height="50" as="geometry" />
        </mxCell>
      </root>
    </mxGraphModel>
  </diagram>
  <diagram id="oJMWhMjttmCIodCj9CRg" name="Page-2">
    <mxGraphModel dx="1194" dy="671" grid="1" gridSize="10" guides="1" tooltips="1" connect="1" arrows="1" fold="1" page="1" pageScale="1" pageWidth="850" pageHeight="1100" math="0" shadow="0">
      <root>
        <mxCell id="0" />
        <mxCell id="1" parent="0" />
        <mxCell id="Cf9qOobosBltCWLoxzpp-31" value="" style="rounded=0;whiteSpace=wrap;html=1;fillColor=#f5f5f5;fontColor=#333333;strokeColor=#666666;" vertex="1" parent="1">
          <mxGeometry x="61" y="100" width="660" height="670" as="geometry" />
        </mxCell>
        <mxCell id="Cf9qOobosBltCWLoxzpp-1" value="&lt;b&gt;Convert Long Url&lt;br&gt;To&lt;br&gt;Short Url&lt;/b&gt;" style="rounded=0;whiteSpace=wrap;html=1;fillColor=#fff2cc;strokeColor=#d6b656;" vertex="1" parent="1">
          <mxGeometry x="104" y="140" width="130" height="70" as="geometry" />
        </mxCell>
        <mxCell id="Cf9qOobosBltCWLoxzpp-3" value="&lt;b&gt;get(short)&lt;/b&gt;" style="rounded=0;whiteSpace=wrap;html=1;fillColor=#fff2cc;strokeColor=#d6b656;" vertex="1" parent="1">
          <mxGeometry x="283" y="140" width="130" height="70" as="geometry" />
        </mxCell>
        <mxCell id="Cf9qOobosBltCWLoxzpp-5" value="&lt;b&gt;Modify Short Url&lt;/b&gt;" style="rounded=0;whiteSpace=wrap;html=1;fillColor=#fff2cc;strokeColor=#d6b656;" vertex="1" parent="1">
          <mxGeometry x="494" y="475" width="130" height="70" as="geometry" />
        </mxCell>
        <mxCell id="Cf9qOobosBltCWLoxzpp-6" value="&lt;b&gt;get(short)&lt;/b&gt;" style="rounded=0;whiteSpace=wrap;html=1;fillColor=#fff2cc;strokeColor=#d6b656;" vertex="1" parent="1">
          <mxGeometry x="256.5" y="296" width="130" height="70" as="geometry" />
        </mxCell>
        <mxCell id="Cf9qOobosBltCWLoxzpp-8" value="&lt;b&gt;put(short, long)&lt;/b&gt;" style="rounded=0;whiteSpace=wrap;html=1;fillColor=#fff2cc;strokeColor=#d6b656;" vertex="1" parent="1">
          <mxGeometry x="493" y="296" width="130" height="70" as="geometry" />
        </mxCell>
        <mxCell id="Cf9qOobosBltCWLoxzpp-9" value="&lt;b&gt;Short Url&lt;br&gt;Exist&lt;br&gt;In&amp;nbsp;&lt;br&gt;Database&lt;/b&gt;" style="rhombus;whiteSpace=wrap;html=1;fillColor=#fff2cc;strokeColor=#d6b656;" vertex="1" parent="1">
          <mxGeometry x="504" y="105" width="110" height="140" as="geometry" />
        </mxCell>
        <mxCell id="Cf9qOobosBltCWLoxzpp-11" value="&lt;b&gt;Long Url from &lt;br&gt;reqest equals to &lt;br&gt;Long Url for &lt;br&gt;get operration&amp;nbsp;&lt;/b&gt;" style="rhombus;whiteSpace=wrap;html=1;fillColor=#fff2cc;strokeColor=#d6b656;" vertex="1" parent="1">
          <mxGeometry x="253" y="428" width="137" height="164" as="geometry" />
        </mxCell>
        <mxCell id="Cf9qOobosBltCWLoxzpp-12" value="" style="endArrow=classic;html=1;rounded=0;exitX=1;exitY=0.5;exitDx=0;exitDy=0;entryX=0;entryY=0.5;entryDx=0;entryDy=0;" edge="1" parent="1" source="Cf9qOobosBltCWLoxzpp-1" target="Cf9qOobosBltCWLoxzpp-3">
          <mxGeometry width="50" height="50" relative="1" as="geometry">
            <mxPoint x="210" y="180" as="sourcePoint" />
            <mxPoint x="260" y="130" as="targetPoint" />
          </mxGeometry>
        </mxCell>
        <mxCell id="Cf9qOobosBltCWLoxzpp-13" value="" style="endArrow=classic;html=1;rounded=0;exitX=1;exitY=0.5;exitDx=0;exitDy=0;entryX=0;entryY=0.5;entryDx=0;entryDy=0;" edge="1" parent="1" source="Cf9qOobosBltCWLoxzpp-3" target="Cf9qOobosBltCWLoxzpp-9">
          <mxGeometry width="50" height="50" relative="1" as="geometry">
            <mxPoint x="400" y="450" as="sourcePoint" />
            <mxPoint x="460" y="210" as="targetPoint" />
          </mxGeometry>
        </mxCell>
        <mxCell id="Cf9qOobosBltCWLoxzpp-14" value="" style="endArrow=classic;html=1;rounded=0;exitX=1;exitY=0.5;exitDx=0;exitDy=0;entryX=0;entryY=0.5;entryDx=0;entryDy=0;" edge="1" parent="1" source="Cf9qOobosBltCWLoxzpp-11" target="Cf9qOobosBltCWLoxzpp-5">
          <mxGeometry width="50" height="50" relative="1" as="geometry">
            <mxPoint x="420" y="590" as="sourcePoint" />
            <mxPoint x="470" y="540" as="targetPoint" />
          </mxGeometry>
        </mxCell>
        <mxCell id="Cf9qOobosBltCWLoxzpp-15" value="" style="endArrow=classic;html=1;rounded=0;exitX=0.5;exitY=1;exitDx=0;exitDy=0;entryX=0.5;entryY=0;entryDx=0;entryDy=0;" edge="1" parent="1" source="Cf9qOobosBltCWLoxzpp-6" target="Cf9qOobosBltCWLoxzpp-11">
          <mxGeometry width="50" height="50" relative="1" as="geometry">
            <mxPoint x="330" y="470" as="sourcePoint" />
            <mxPoint x="380" y="420" as="targetPoint" />
          </mxGeometry>
        </mxCell>
        <mxCell id="Cf9qOobosBltCWLoxzpp-16" value="" style="endArrow=classic;html=1;rounded=0;exitX=0.5;exitY=1;exitDx=0;exitDy=0;" edge="1" parent="1" source="Cf9qOobosBltCWLoxzpp-11" target="Cf9qOobosBltCWLoxzpp-24">
          <mxGeometry width="50" height="50" relative="1" as="geometry">
            <mxPoint x="320" y="470" as="sourcePoint" />
            <mxPoint x="370" y="420" as="targetPoint" />
          </mxGeometry>
        </mxCell>
        <mxCell id="Cf9qOobosBltCWLoxzpp-17" value="" style="endArrow=classic;html=1;rounded=0;entryX=1;entryY=0.5;entryDx=0;entryDy=0;exitX=0;exitY=0.5;exitDx=0;exitDy=0;" edge="1" parent="1" source="Cf9qOobosBltCWLoxzpp-8" target="Cf9qOobosBltCWLoxzpp-6">
          <mxGeometry width="50" height="50" relative="1" as="geometry">
            <mxPoint x="400" y="450" as="sourcePoint" />
            <mxPoint x="450" y="400" as="targetPoint" />
          </mxGeometry>
        </mxCell>
        <mxCell id="Cf9qOobosBltCWLoxzpp-18" value="" style="endArrow=classic;html=1;rounded=0;entryX=0.5;entryY=0;entryDx=0;entryDy=0;exitX=0.5;exitY=1;exitDx=0;exitDy=0;" edge="1" parent="1" source="Cf9qOobosBltCWLoxzpp-9" target="Cf9qOobosBltCWLoxzpp-8">
          <mxGeometry width="50" height="50" relative="1" as="geometry">
            <mxPoint x="556" y="260" as="sourcePoint" />
            <mxPoint x="606" y="210" as="targetPoint" />
          </mxGeometry>
        </mxCell>
        <mxCell id="Cf9qOobosBltCWLoxzpp-19" value="" style="endArrow=classic;html=1;rounded=0;exitX=1;exitY=0.5;exitDx=0;exitDy=0;entryX=1;entryY=0.5;entryDx=0;entryDy=0;" edge="1" parent="1" target="Cf9qOobosBltCWLoxzpp-5">
          <mxGeometry width="50" height="50" relative="1" as="geometry">
            <mxPoint x="614" y="174" as="sourcePoint" />
            <mxPoint x="624" y="517" as="targetPoint" />
            <Array as="points">
              <mxPoint x="682" y="174" />
              <mxPoint x="682" y="510" />
            </Array>
          </mxGeometry>
        </mxCell>
        <mxCell id="Cf9qOobosBltCWLoxzpp-23" value="" style="endArrow=classic;html=1;rounded=0;exitX=0.5;exitY=0;exitDx=0;exitDy=0;entryX=0.5;entryY=1;entryDx=0;entryDy=0;" edge="1" parent="1" source="Cf9qOobosBltCWLoxzpp-5" target="Cf9qOobosBltCWLoxzpp-8">
          <mxGeometry width="50" height="50" relative="1" as="geometry">
            <mxPoint x="560" y="520" as="sourcePoint" />
            <mxPoint x="610" y="470" as="targetPoint" />
          </mxGeometry>
        </mxCell>
        <mxCell id="Cf9qOobosBltCWLoxzpp-24" value="&lt;b&gt;End&lt;/b&gt;" style="ellipse;whiteSpace=wrap;html=1;aspect=fixed;fillColor=#fff2cc;strokeColor=#d6b656;" vertex="1" parent="1">
          <mxGeometry x="281.5" y="660" width="80" height="80" as="geometry" />
        </mxCell>
        <mxCell id="Cf9qOobosBltCWLoxzpp-26" value="&lt;b&gt;Not equal&lt;/b&gt;" style="text;html=1;strokeColor=none;fillColor=none;align=center;verticalAlign=middle;whiteSpace=wrap;rounded=0;" vertex="1" parent="1">
          <mxGeometry x="413" y="490" width="60" height="30" as="geometry" />
        </mxCell>
        <mxCell id="Cf9qOobosBltCWLoxzpp-27" value="&lt;b&gt;equal&lt;/b&gt;" style="text;html=1;strokeColor=none;fillColor=none;align=center;verticalAlign=middle;whiteSpace=wrap;rounded=0;" vertex="1" parent="1">
          <mxGeometry x="310" y="609" width="60" height="30" as="geometry" />
        </mxCell>
        <mxCell id="Cf9qOobosBltCWLoxzpp-28" value="&lt;b&gt;exist&lt;/b&gt;" style="text;html=1;strokeColor=none;fillColor=none;align=center;verticalAlign=middle;whiteSpace=wrap;rounded=0;" vertex="1" parent="1">
          <mxGeometry x="614" y="153" width="60" height="30" as="geometry" />
        </mxCell>
        <mxCell id="Cf9qOobosBltCWLoxzpp-29" value="doesn&#39;t exist" style="text;html=1;strokeColor=none;fillColor=none;align=center;verticalAlign=middle;whiteSpace=wrap;rounded=0;" vertex="1" parent="1">
          <mxGeometry x="509" y="253" width="100" height="30" as="geometry" />
        </mxCell>
        <mxCell id="Cf9qOobosBltCWLoxzpp-33" value="&lt;h1&gt;&lt;i&gt;&lt;font style=&quot;font-size: 30px;&quot;&gt;Final Design&lt;/font&gt;&lt;/i&gt;&lt;/h1&gt;" style="text;html=1;align=center;verticalAlign=middle;resizable=0;points=[];autosize=1;strokeColor=none;fillColor=none;" vertex="1" parent="1">
          <mxGeometry x="280" y="47" width="200" height="80" as="geometry" />
        </mxCell>
      </root>
    </mxGraphModel>
  </diagram>
</mxfile>
